<svg width="285" height="64" viewBox="0 0 285 64" fill="none" xmlns="http://www.w3.org/2000/svg">
<g id="Button">
<g id="ButtonClip">
<path id="Rectangle 2" d="M0 10C0 4.47715 4.47715 0 10 0H275C280.523 0 285 4.47715 285 10V54C285 59.5228 280.523 64 275 64H16.6681C13.3877 64 10.3159 62.3911 8.44788 59.6946L1.77981 50.0692C0.62091 48.3963 0 46.4096 0 44.3746V10Z" fill="white"/>
</g>
<path id="Text" d="M49.9609 31.1172V35.5469C49.7943 35.7604 49.5312 35.9922 49.1719 36.2422C48.8177 36.4922 48.3542 36.7083 47.7812 36.8906C47.2083 37.0677 46.5052 37.1562 45.6719 37.1562C44.9479 37.1562 44.2865 37.0365 43.6875 36.7969C43.0885 36.5521 42.5729 36.1953 42.1406 35.7266C41.7083 35.2578 41.375 34.6849 41.1406 34.0078C40.9062 33.3307 40.7891 32.5573 40.7891 31.6875V30.9375C40.7891 30.0677 40.8984 29.2943 41.1172 28.6172C41.3411 27.9401 41.6589 27.3672 42.0703 26.8984C42.487 26.4297 42.9844 26.0729 43.5625 25.8281C44.1458 25.5833 44.7969 25.4609 45.5156 25.4609C46.4792 25.4609 47.2708 25.6198 47.8906 25.9375C48.5156 26.2552 48.9948 26.6927 49.3281 27.25C49.6615 27.8021 49.8698 28.4375 49.9531 29.1562H47.8594C47.8021 28.7604 47.6875 28.4141 47.5156 28.1172C47.3438 27.8151 47.099 27.5807 46.7812 27.4141C46.4688 27.2422 46.0625 27.1562 45.5625 27.1562C45.1406 27.1562 44.7682 27.2396 44.4453 27.4062C44.1224 27.5729 43.8516 27.8151 43.6328 28.1328C43.4141 28.4505 43.2474 28.8438 43.1328 29.3125C43.0234 29.7812 42.9688 30.3177 42.9688 30.9219V31.6875C42.9688 32.2969 43.0312 32.8385 43.1562 33.3125C43.2812 33.7812 43.4609 34.1771 43.6953 34.5C43.9349 34.8177 44.2292 35.0599 44.5781 35.2266C44.9323 35.388 45.3333 35.4688 45.7812 35.4688C46.1875 35.4688 46.5234 35.4349 46.7891 35.3672C47.0599 35.2943 47.276 35.2083 47.4375 35.1094C47.599 35.0104 47.724 34.9141 47.8125 34.8203V32.6875H45.5547V31.1172H49.9609ZM62.7312 35.3125V37H56.6844V35.3125H62.7312ZM57.3406 25.625V37H55.1922V25.625H57.3406ZM61.9422 30.3203V31.9688H56.6844V30.3203H61.9422ZM62.7078 25.625V27.3203H56.6844V25.625H62.7078ZM76.5641 25.625V37H74.4078L69.5719 29.1094V37H67.4234V25.625H69.5719L74.4234 33.5234V25.625H76.5641ZM89.4906 35.3125V37H83.4437V35.3125H89.4906ZM84.1 25.625V37H81.9516V25.625H84.1ZM88.7016 30.3203V31.9688H83.4437V30.3203H88.7016ZM89.4672 25.625V27.3203H83.4437V25.625H89.4672ZM94.1828 25.625H98.3156C99.1802 25.625 99.9224 25.7552 100.542 26.0156C101.162 26.276 101.639 26.6615 101.972 27.1719C102.305 27.6823 102.472 28.3099 102.472 29.0547C102.472 29.6432 102.368 30.1536 102.159 30.5859C101.951 31.0182 101.657 31.3802 101.277 31.6719C100.902 31.9635 100.459 32.1927 99.9484 32.3594L99.2766 32.7031H95.6281L95.6125 31.0078H98.3391C98.7818 31.0078 99.149 30.9297 99.4406 30.7734C99.7323 30.6172 99.951 30.401 100.097 30.125C100.248 29.849 100.323 29.5339 100.323 29.1797C100.323 28.7995 100.251 28.4714 100.105 28.1953C99.9589 27.9141 99.7375 27.6979 99.4406 27.5469C99.1437 27.3958 98.7687 27.3203 98.3156 27.3203H96.3312V37H94.1828V25.625ZM100.605 37L97.9719 31.9062L100.245 31.8984L102.909 36.8906V37H100.605ZM112.078 27.3516L108.836 37H106.562L110.812 25.625H112.266L112.078 27.3516ZM114.789 37L111.531 27.3516L111.336 25.625H112.797L117.07 37H114.789ZM114.641 32.7734V34.4688H108.539V32.7734H114.641ZM125.341 25.625V37H123.2V25.625H125.341ZM128.872 25.625V27.3203H119.708V25.625H128.872ZM141.041 35.3125V37H134.994V35.3125H141.041ZM135.65 25.625V37H133.502V25.625H135.65ZM140.252 30.3203V31.9688H134.994V30.3203H140.252ZM141.017 25.625V27.3203H134.994V25.625H141.017ZM157.292 32.8516H154.363V31.1641H157.292C157.771 31.1641 158.159 31.0859 158.456 30.9297C158.758 30.7682 158.98 30.5495 159.12 30.2734C159.261 29.9922 159.331 29.6719 159.331 29.3125C159.331 28.9635 159.261 28.638 159.12 28.3359C158.98 28.0339 158.758 27.7891 158.456 27.6016C158.159 27.4141 157.771 27.3203 157.292 27.3203H155.066V37H152.917V25.625H157.292C158.178 25.625 158.933 25.7839 159.558 26.1016C160.188 26.4141 160.667 26.849 160.995 27.4062C161.329 27.9583 161.495 28.5885 161.495 29.2969C161.495 30.0312 161.329 30.6641 160.995 31.1953C160.667 31.7266 160.188 32.1354 159.558 32.4219C158.933 32.7083 158.178 32.8516 157.292 32.8516ZM169.672 27.3516L166.43 37H164.156L168.406 25.625H169.859L169.672 27.3516ZM172.383 37L169.125 27.3516L168.93 25.625H170.391L174.664 37H172.383ZM172.234 32.7734V34.4688H166.133V32.7734H172.234ZM184.989 34.0469C184.989 33.8281 184.955 33.6328 184.887 33.4609C184.825 33.2839 184.708 33.125 184.536 32.9844C184.369 32.8385 184.132 32.6979 183.825 32.5625C183.523 32.4219 183.132 32.276 182.653 32.125C182.122 31.9583 181.627 31.7708 181.169 31.5625C180.71 31.3542 180.307 31.112 179.958 30.8359C179.614 30.5599 179.346 30.2422 179.153 29.8828C178.96 29.5182 178.864 29.0964 178.864 28.6172C178.864 28.1484 178.963 27.7214 179.161 27.3359C179.364 26.9505 179.651 26.6198 180.02 26.3438C180.39 26.0625 180.825 25.8464 181.325 25.6953C181.83 25.5443 182.387 25.4688 182.997 25.4688C183.841 25.4688 184.57 25.6224 185.184 25.9297C185.804 26.237 186.283 26.6536 186.622 27.1797C186.96 27.7057 187.13 28.2969 187.13 28.9531H184.989C184.989 28.599 184.914 28.2865 184.762 28.0156C184.617 27.7448 184.393 27.5312 184.091 27.375C183.794 27.2188 183.419 27.1406 182.966 27.1406C182.528 27.1406 182.164 27.2057 181.872 27.3359C181.585 27.4661 181.369 27.6432 181.223 27.8672C181.083 28.0911 181.012 28.3411 181.012 28.6172C181.012 28.8255 181.062 29.013 181.161 29.1797C181.26 29.3411 181.408 29.4948 181.606 29.6406C181.804 29.7812 182.049 29.9141 182.341 30.0391C182.637 30.1589 182.981 30.2786 183.372 30.3984C183.997 30.5859 184.544 30.7943 185.012 31.0234C185.486 31.2526 185.88 31.513 186.192 31.8047C186.51 32.0964 186.747 32.4245 186.903 32.7891C187.065 33.1536 187.145 33.5677 187.145 34.0312C187.145 34.5208 187.049 34.9583 186.856 35.3438C186.664 35.7292 186.387 36.0573 186.028 36.3281C185.669 36.599 185.236 36.8047 184.731 36.9453C184.231 37.0859 183.671 37.1562 183.052 37.1562C182.499 37.1562 181.953 37.0833 181.411 36.9375C180.874 36.7865 180.387 36.5625 179.95 36.2656C179.512 35.9635 179.164 35.5833 178.903 35.125C178.643 34.6615 178.512 34.1198 178.512 33.5H180.669C180.669 33.8594 180.726 34.1667 180.841 34.4219C180.96 34.6719 181.127 34.8776 181.341 35.0391C181.559 35.1953 181.815 35.3099 182.106 35.3828C182.398 35.4557 182.713 35.4922 183.052 35.4922C183.489 35.4922 183.848 35.4323 184.13 35.3125C184.416 35.1875 184.63 35.0156 184.77 34.7969C184.916 34.5781 184.989 34.3281 184.989 34.0469ZM197.955 34.0469C197.955 33.8281 197.921 33.6328 197.853 33.4609C197.791 33.2839 197.673 33.125 197.502 32.9844C197.335 32.8385 197.098 32.6979 196.791 32.5625C196.489 32.4219 196.098 32.276 195.619 32.125C195.087 31.9583 194.593 31.7708 194.134 31.5625C193.676 31.3542 193.272 31.112 192.923 30.8359C192.58 30.5599 192.311 30.2422 192.119 29.8828C191.926 29.5182 191.83 29.0964 191.83 28.6172C191.83 28.1484 191.929 27.7214 192.127 27.3359C192.33 26.9505 192.616 26.6198 192.986 26.3438C193.356 26.0625 193.791 25.8464 194.291 25.6953C194.796 25.5443 195.353 25.4688 195.962 25.4688C196.806 25.4688 197.535 25.6224 198.15 25.9297C198.77 26.237 199.249 26.6536 199.587 27.1797C199.926 27.7057 200.095 28.2969 200.095 28.9531H197.955C197.955 28.599 197.879 28.2865 197.728 28.0156C197.582 27.7448 197.358 27.5312 197.056 27.375C196.759 27.2188 196.384 27.1406 195.931 27.1406C195.494 27.1406 195.129 27.2057 194.837 27.3359C194.551 27.4661 194.335 27.6432 194.189 27.8672C194.048 28.0911 193.978 28.3411 193.978 28.6172C193.978 28.8255 194.028 29.013 194.127 29.1797C194.226 29.3411 194.374 29.4948 194.572 29.6406C194.77 29.7812 195.015 29.9141 195.306 30.0391C195.603 30.1589 195.947 30.2786 196.337 30.3984C196.962 30.5859 197.509 30.7943 197.978 31.0234C198.452 31.2526 198.845 31.513 199.158 31.8047C199.476 32.0964 199.712 32.4245 199.869 32.7891C200.03 33.1536 200.111 33.5677 200.111 34.0312C200.111 34.5208 200.015 34.9583 199.822 35.3438C199.629 35.7292 199.353 36.0573 198.994 36.3281C198.634 36.599 198.202 36.8047 197.697 36.9453C197.197 37.0859 196.637 37.1562 196.017 37.1562C195.465 37.1562 194.918 37.0833 194.377 36.9375C193.84 36.7865 193.353 36.5625 192.916 36.2656C192.478 35.9635 192.129 35.5833 191.869 35.125C191.608 34.6615 191.478 34.1198 191.478 33.5H193.634C193.634 33.8594 193.692 34.1667 193.806 34.4219C193.926 34.6719 194.093 34.8776 194.306 35.0391C194.525 35.1953 194.78 35.3099 195.072 35.3828C195.364 35.4557 195.679 35.4922 196.017 35.4922C196.455 35.4922 196.814 35.4323 197.095 35.3125C197.382 35.1875 197.595 35.0156 197.736 34.7969C197.882 34.5781 197.955 34.3281 197.955 34.0469ZM207.764 34.8203L210.03 25.625H211.256L211.334 27.5625L208.913 37H207.616L207.764 34.8203ZM206.334 25.625L208.194 34.7891V37H206.78L204.202 25.625H206.334ZM213.686 34.75L215.514 25.625H217.655L215.077 37H213.663L213.686 34.75ZM211.842 25.625L214.108 34.8516L214.241 37H212.944L210.53 27.5547L210.623 25.625H211.842ZM231.425 31.0234V31.6094C231.425 32.4688 231.31 33.2422 231.081 33.9297C230.852 34.612 230.527 35.1927 230.105 35.6719C229.683 36.151 229.18 36.5182 228.597 36.7734C228.014 37.0286 227.365 37.1562 226.652 37.1562C225.948 37.1562 225.303 37.0286 224.714 36.7734C224.131 36.5182 223.626 36.151 223.198 35.6719C222.771 35.1927 222.441 34.612 222.206 33.9297C221.972 33.2422 221.855 32.4688 221.855 31.6094V31.0234C221.855 30.1589 221.972 29.3854 222.206 28.7031C222.441 28.0208 222.769 27.4401 223.191 26.9609C223.613 26.4766 224.115 26.1068 224.698 25.8516C225.287 25.5964 225.933 25.4688 226.636 25.4688C227.349 25.4688 227.998 25.5964 228.581 25.8516C229.165 26.1068 229.667 26.4766 230.089 26.9609C230.516 27.4401 230.844 28.0208 231.073 28.7031C231.308 29.3854 231.425 30.1589 231.425 31.0234ZM229.253 31.6094V31.0078C229.253 30.388 229.196 29.8438 229.081 29.375C228.967 28.901 228.797 28.5026 228.573 28.1797C228.349 27.8568 228.073 27.6146 227.745 27.4531C227.417 27.2865 227.047 27.2031 226.636 27.2031C226.219 27.2031 225.849 27.2865 225.527 27.4531C225.209 27.6146 224.938 27.8568 224.714 28.1797C224.49 28.5026 224.318 28.901 224.198 29.375C224.084 29.8438 224.027 30.388 224.027 31.0078V31.6094C224.027 32.224 224.084 32.7682 224.198 33.2422C224.318 33.7161 224.49 34.1172 224.714 34.4453C224.943 34.7682 225.219 35.013 225.542 35.1797C225.865 35.3464 226.235 35.4297 226.652 35.4297C227.068 35.4297 227.438 35.3464 227.761 35.1797C228.084 35.013 228.355 34.7682 228.573 34.4453C228.797 34.1172 228.967 33.7161 229.081 33.2422C229.196 32.7682 229.253 32.224 229.253 31.6094ZM236.445 25.625H240.578C241.443 25.625 242.185 25.7552 242.805 26.0156C243.424 26.276 243.901 26.6615 244.234 27.1719C244.568 27.6823 244.734 28.3099 244.734 29.0547C244.734 29.6432 244.63 30.1536 244.422 30.5859C244.214 31.0182 243.919 31.3802 243.539 31.6719C243.164 31.9635 242.721 32.1927 242.211 32.3594L241.539 32.7031H237.891L237.875 31.0078H240.602C241.044 31.0078 241.411 30.9297 241.703 30.7734C241.995 30.6172 242.214 30.401 242.359 30.125C242.51 29.849 242.586 29.5339 242.586 29.1797C242.586 28.7995 242.513 28.4714 242.367 28.1953C242.221 27.9141 242 27.6979 241.703 27.5469C241.406 27.3958 241.031 27.3203 240.578 27.3203H238.594V37H236.445V25.625ZM242.867 37L240.234 31.9062L242.508 31.8984L245.172 36.8906V37H242.867ZM253.216 37H250.762L250.778 35.3125H253.216C253.877 35.3125 254.432 35.1667 254.88 34.875C255.328 34.5781 255.666 34.1536 255.895 33.6016C256.124 33.0443 256.239 32.3776 256.239 31.6016V31.0156C256.239 30.4167 256.174 29.888 256.044 29.4297C255.914 28.9714 255.721 28.5859 255.466 28.2734C255.216 27.9609 254.906 27.724 254.536 27.5625C254.166 27.401 253.742 27.3203 253.262 27.3203H250.716V25.625H253.262C254.023 25.625 254.716 25.7526 255.341 26.0078C255.971 26.263 256.515 26.6302 256.973 27.1094C257.437 27.5833 257.791 28.151 258.036 28.8125C258.286 29.474 258.411 30.2135 258.411 31.0312V31.6016C258.411 32.4141 258.286 33.1536 258.036 33.8203C257.791 34.4818 257.437 35.0495 256.973 35.5234C256.515 35.9974 255.968 36.362 255.333 36.6172C254.697 36.8724 253.992 37 253.216 37ZM251.966 25.625V37H249.817V25.625H251.966Z" fill="black"/>
</g>
</svg>
