<?xml version="1.0" encoding="UTF-8"?>
<svg version="1.1" xmlns="http://www.w3.org/2000/svg" width="500" height="308">
<path d="M0 0 C0.86367188 0.62261719 1.72734375 1.24523437 2.6171875 1.88671875 C26.36880633 19.984997 42.67247017 45.12940688 50 74 C50.17644043 74.67643555 50.35288086 75.35287109 50.53466797 76.04980469 C57.02055668 102.03192777 52.93199911 128.28524519 44 153 C40.20950293 151.57250019 36.72877544 149.83763458 33.1875 147.875 C32.21167969 147.33617187 31.23585938 146.79734375 30.23046875 146.2421875 C29.49441406 145.83226562 28.75835937 145.42234375 28 145 C29.30888367 138.95899846 30.75246783 132.9724287 32.31640625 126.9921875 C38.59400983 99.51421981 32.49268653 70.05677606 18.11328125 46.15625 C14.74929541 41.13203455 10.95611626 36.56297681 7 32 C5.824375 30.453125 5.824375 30.453125 4.625 28.875 C-11.88281808 10.79500877 -36.85812465 -0.96935088 -61 -4 C-62.01707031 -4.1340625 -63.03414062 -4.268125 -64.08203125 -4.40625 C-92.18548677 -7.28530016 -121.29251594 1.70649707 -143.5 19.0625 C-145.01866113 20.35336196 -146.5201023 21.6648749 -148 23 C-148.6703125 23.60070313 -149.340625 24.20140625 -150.03125 24.8203125 C-170.79305536 44.51107234 -182.53382719 71.83844833 -183.93652344 100.26123047 C-184.56404248 127.33626362 -176.42596685 154.70677456 -158 175 C-156.88044922 176.3303125 -156.88044922 176.3303125 -155.73828125 177.6875 C-141.34116852 194.37980461 -123.65262198 203.32644773 -103 210 C-104.42749981 213.79049707 -106.16236542 217.27122456 -108.125 220.8125 C-108.93324219 222.27623047 -108.93324219 222.27623047 -109.7578125 223.76953125 C-110.16773438 224.50558594 -110.57765625 225.24164063 -111 226 C-117.92705694 225.52770066 -123.72523709 222.83896728 -130 220 C-131.25683594 219.443125 -131.25683594 219.443125 -132.5390625 218.875 C-144.00964684 213.49466076 -153.89317205 205.72809408 -163 197 C-163.845625 196.195625 -164.69125 195.39125 -165.5625 194.5625 C-166.366875 193.716875 -167.17125 192.87125 -168 192 C-168.64195312 191.34128906 -169.28390625 190.68257812 -169.9453125 190.00390625 C-191.75094369 166.8686634 -202.42002043 136.57693777 -202.375 105 C-202.37412384 104.32191284 -202.37324768 103.64382568 -202.37234497 102.94519043 C-202.22362879 67.88933791 -188.27625568 37.06733529 -164 12 C-120.29077934 -30.26129617 -49.25865934 -35.6900208 0 0 Z " fill="#101010" transform="translate(262,32)"/>
<path d="M0 0 C13.54203138 11.17657531 23.69927437 25.71894996 25.73364258 43.56469727 C25.88792596 46.37434424 25.93527664 49.15647039 25.91650391 51.97021484 C25.91150879 52.96690186 25.90651367 53.96358887 25.90136719 54.99047852 C25.48523484 72.82533686 18.24293581 87.42233023 5.41650391 99.78271484 C-5.30221001 108.95153862 -18.24781359 115.78271484 -32.58349609 115.78271484 C-32.58349609 127.66271484 -32.58349609 139.54271484 -32.58349609 151.78271484 C-23.01349609 151.78271484 -13.44349609 151.78271484 -3.58349609 151.78271484 C-3.58349609 155.41271484 -3.58349609 159.04271484 -3.58349609 162.78271484 C-4.58349609 163.78271484 -4.58349609 163.78271484 -7.35913086 163.89624023 C-8.56883545 163.89100342 -9.77854004 163.8857666 -11.02490234 163.88037109 C-12.33007812 163.87714844 -13.63525391 163.87392578 -14.97998047 163.87060547 C-16.36865299 163.86224886 -17.75732487 163.85378389 -19.14599609 163.84521484 C-20.53857265 163.8402015 -21.93115091 163.83563831 -23.32373047 163.83154297 C-26.7436706 163.81970927 -30.16358859 163.80177315 -33.58349609 163.78271484 C-33.58349609 168.73271484 -33.58349609 173.68271484 -33.58349609 178.78271484 C-23.68349609 178.78271484 -13.78349609 178.78271484 -3.58349609 178.78271484 C-3.58349609 182.41271484 -3.58349609 186.04271484 -3.58349609 189.78271484 C-4.58349609 190.78271484 -4.58349609 190.78271484 -7.35913086 190.89624023 C-8.56883545 190.89100342 -9.77854004 190.8857666 -11.02490234 190.88037109 C-12.33007812 190.87714844 -13.63525391 190.87392578 -14.97998047 190.87060547 C-16.36865299 190.86224886 -17.75732487 190.85378389 -19.14599609 190.84521484 C-20.53857265 190.8402015 -21.93115091 190.83563831 -23.32373047 190.83154297 C-26.7436706 190.81970927 -30.16358859 190.80177315 -33.58349609 190.78271484 C-33.58349609 196.39271484 -33.58349609 202.00271484 -33.58349609 207.78271484 C-37.54349609 207.78271484 -41.50349609 207.78271484 -45.58349609 207.78271484 C-45.75451698 177.10419845 -45.26642969 146.45324074 -44.58349609 115.78271484 C-45.37868652 115.66371826 -46.17387695 115.54472168 -46.99316406 115.42211914 C-59.32595066 113.48931296 -68.68154153 109.40508275 -78.58349609 101.78271484 C-79.61474609 101.04021484 -80.64599609 100.29771484 -81.70849609 99.53271484 C-94.68294481 87.12237259 -101.53855795 70.07776376 -102.08349609 52.28271484 C-101.5142698 34.27618988 -94.69714519 17.36120321 -81.58349609 4.78271484 C-59.5707563 -14.187728 -23.97353475 -18.42923901 0 0 Z M-74.45849609 24.28271484 C-82.2737264 35.02176073 -84.595421 45.53282313 -83.58349609 58.78271484 C-81.46913292 71.30370924 -75.06784114 82.07825097 -64.93896484 89.79833984 C-58.76496683 93.90858188 -52.17829969 97.78271484 -44.58349609 97.78271484 C-44.35057329 94.05460616 -44.20890485 90.32836493 -44.08349609 86.59521484 C-44.01646484 85.54011719 -43.94943359 84.48501953 -43.88037109 83.39794922 C-43.80309877 80.33603341 -43.82941992 77.75447855 -44.58349609 74.78271484 C-46.45848002 72.86903569 -48.14381726 71.86169333 -50.5703125 70.74804688 C-54.78334351 68.72787654 -56.98783424 65.08749796 -58.89599609 60.90771484 C-60.44679793 53.85861558 -60.03229637 47.19748335 -56.58349609 40.78271484 C-52.41013779 35.83860118 -48.05606182 32.82294862 -41.58349609 31.78271484 C-35.71478526 31.31694414 -30.71712217 31.6984405 -25.58349609 34.78271484 C-20.35456277 39.43636277 -17.08866701 44.03571199 -16.33740234 51.09521484 C-16.03065639 57.19295254 -16.93991165 61.8180647 -20.58349609 66.78271484 C-24.3225237 70.76982959 -27.43760134 72.72435694 -32.58349609 74.78271484 C-32.58349609 82.37271484 -32.58349609 89.96271484 -32.58349609 97.78271484 C-19.28461477 96.12035468 -9.20519364 90.11188795 -0.58349609 79.78271484 C1.34308337 76.89023511 2.92927302 73.92120943 4.41650391 70.78271484 C4.88056641 69.82751953 4.88056641 69.82751953 5.35400391 68.85302734 C9.79741091 58.55628612 9.05752469 46.78159598 5.60009766 36.31005859 C3.35845356 30.84194769 0.22155527 26.27875617 -3.58349609 21.78271484 C-4.08494141 21.17427734 -4.58638672 20.56583984 -5.10302734 19.93896484 C-11.78049069 12.53039238 -22.61445693 7.05999277 -32.61474609 6.41162109 C-49.82316631 5.93489095 -63.25605821 10.54611025 -74.45849609 24.28271484 Z " fill="#101010" transform="translate(224.58349609375,83.21728515625)"/>
<path d="M0 0 C17.08695652 0 17.08695652 0 21 2 C24.11623404 7.02618393 24.56531944 11.15836584 24 17 C22.5 20 22.5 20 21 22 C21.73089844 23.02287109 21.73089844 23.02287109 22.4765625 24.06640625 C24.30994216 27.59683733 24.40080133 29.97699528 24.375 33.9375 C24.38273437 35.12214844 24.39046875 36.30679688 24.3984375 37.52734375 C23.85580688 42.25674201 22.37110342 45.62889658 19 49 C12.73 49 6.46 49 0 49 C0 32.83 0 16.66 0 0 Z M10 9 C10 12.3 10 15.6 10 19 C10.99 18.67 11.98 18.34 13 18 C13 15.03 13 12.06 13 9 C12.01 9 11.02 9 10 9 Z M10 27 C10 31.29 10 35.58 10 40 C11.32 39.34 12.64 38.68 14 38 C14.0270043 36.54176788 14.04639787 35.08339325 14.0625 33.625 C14.07410156 32.81289062 14.08570313 32.00078125 14.09765625 31.1640625 C14.14466334 28.95062858 14.14466334 28.95062858 13 27 C12.01 27 11.02 27 10 27 Z " fill="#151515" transform="translate(287,197)"/>
<path d="M0 0 C16 0 16 0 21 2 C24.03879819 5.76043 24.38474871 8.74270009 24.3125 13.5 C24.30863281 14.6034375 24.30476563 15.706875 24.30078125 16.84375 C24.00520718 19.94535844 23.3140157 22.19397443 22 25 C22.33 25.33 22.66 25.66 23 26 C23.08713831 27.70772358 23.10700007 29.41898649 23.09765625 31.12890625 C23.09443359 32.16337891 23.09121094 33.19785156 23.08789062 34.26367188 C23.07951172 35.35228516 23.07113281 36.44089844 23.0625 37.5625 C23.05798828 38.65498047 23.05347656 39.74746094 23.04882812 40.87304688 C23.0369984 43.58205432 23.01906231 46.2910338 23 49 C19.7 49 16.4 49 13 49 C13 42.07 13 35.14 13 28 C12.01 28 11.02 28 10 28 C10 34.93 10 41.86 10 49 C6.7 49 3.4 49 0 49 C0 32.83 0 16.66 0 0 Z M10 10 C10 12.64 10 15.28 10 18 C10.99 18 11.98 18 13 18 C14.01540112 13.89776415 14.01540112 13.89776415 13 10 C12.01 10 11.02 10 10 10 Z " fill="#111111" transform="translate(337,197)"/>
<path d="M0 0 C5.61 0 11.22 0 17 0 C17.85267318 2.55801953 18.23041052 4.48770479 18.48071289 7.13256836 C18.56072037 7.96030258 18.64072784 8.7880368 18.72315979 9.64085388 C18.80549362 10.53152054 18.88782745 11.42218719 18.97265625 12.33984375 C19.06002548 13.2583461 19.14739471 14.17684845 19.2374115 15.1231842 C19.42142962 17.06560689 19.60372305 19.00819363 19.78442383 20.95092773 C20.06112844 23.92276933 20.34359353 26.89402072 20.62695312 29.86523438 C20.80502916 31.75257196 20.98277454 33.63994078 21.16015625 35.52734375 C21.24451431 36.41598618 21.32887238 37.3046286 21.41578674 38.22019958 C21.49264206 39.05108597 21.56949738 39.88197235 21.64868164 40.73803711 C21.75074669 41.83032875 21.75074669 41.83032875 21.85487366 42.94468689 C21.99708307 44.95868973 22 46.98098268 22 49 C18.7 49 15.4 49 12 49 C11.67 46.69 11.34 44.38 11 42 C9.35 42 7.7 42 6 42 C6 44.31 6 46.62 6 49 C2.37 49 -1.26 49 -5 49 C-4.45148177 42.98573969 -3.90004786 36.97175639 -3.34594727 30.95800781 C-3.15797676 28.91348449 -2.97079378 26.8688886 -2.78442383 24.82421875 C-2.51592252 21.88001237 -2.2445611 18.93608126 -1.97265625 15.9921875 C-1.89032242 15.0825827 -1.80798859 14.17297791 -1.72315979 13.23580933 C-1.64315231 12.37537018 -1.56314484 11.51493103 -1.48071289 10.62841797 C-1.41187393 9.87785126 -1.34303497 9.12728455 -1.27210999 8.35397339 C-0.94865781 5.55584816 -0.46307218 2.77843306 0 0 Z M8 13 C7.67 19.6 7.34 26.2 7 33 C7.99 33 8.98 33 10 33 C10.11044961 26.26257354 9.70132913 19.70019789 9 13 C8.67 13 8.34 13 8 13 Z " fill="#1B1B1B" transform="translate(406,197)"/>
<path d="M0 0 C3.42449795 2.4688241 4.80695475 4.90042392 5.6875 8.9375 C5.9551097 12.29253271 6.02139565 15.58570139 5.6875 18.9375 C4.6875 19.9375 4.6875 19.9375 2.40234375 20.03515625 C1.02755859 20.01775391 1.02755859 20.01775391 -0.375 20 C-1.29410156 19.99097656 -2.21320313 19.98195312 -3.16015625 19.97265625 C-3.87042969 19.96105469 -4.58070313 19.94945312 -5.3125 19.9375 C-5.36148438 19.22722656 -5.41046875 18.51695312 -5.4609375 17.78515625 C-5.53570312 16.86605469 -5.61046875 15.94695312 -5.6875 15 C-5.75710937 14.08347656 -5.82671875 13.16695312 -5.8984375 12.22265625 C-6.10339844 11.09150391 -6.10339844 11.09150391 -6.3125 9.9375 C-6.9725 9.6075 -7.6325 9.2775 -8.3125 8.9375 C-8.3125 18.8375 -8.3125 28.7375 -8.3125 38.9375 C-7.3225 38.4425 -7.3225 38.4425 -6.3125 37.9375 C-5.8441735 35.35144668 -5.8441735 35.35144668 -5.6875 32.375 C-5.56375 30.580625 -5.44 28.78625 -5.3125 26.9375 C-1.6825 26.9375 1.9475 26.9375 5.6875 26.9375 C6.28031437 40.30875749 6.28031437 40.30875749 2.6875 45.9375 C-1.16381552 48.7140298 -4.69487777 49.48532124 -9.3515625 49.2890625 C-12.72568809 48.68413959 -14.77828179 47.17002557 -17.3125 44.9375 C-20.35964428 39.11148485 -19.6473626 32.61640615 -19.62817383 26.21801758 C-19.62501442 24.01007685 -19.64849663 21.80347846 -19.67382812 19.59570312 C-19.6761016 18.17968918 -19.67680439 16.76367166 -19.67578125 15.34765625 C-19.67876221 14.07027588 -19.68174316 12.79289551 -19.68481445 11.47680664 C-19.17829216 6.66168946 -17.82931411 3.23762638 -14.125 0.0625 C-9.11059354 -1.94326258 -5.00231296 -1.60451548 0 0 Z " fill="#232323" transform="translate(254.3125,198.0625)"/>
<path d="M0 0 C4.16507424 1.7585869 6.20882468 3.85201505 8 8 C8.1875 11.8125 8.1875 11.8125 8 15 C4.37 15 0.74 15 -3 15 C-3 13.35 -3 11.7 -3 10 C-3.99 10.495 -3.99 10.495 -5 11 C-3.62521372 15.23643379 -1.73745465 17.54052529 1.5 20.5625 C5.56993103 24.37475683 7.78241834 26.62920761 8.30078125 32.27734375 C8.30658203 34.08912109 8.30658203 34.08912109 8.3125 35.9375 C8.32925781 37.14277344 8.34601563 38.34804687 8.36328125 39.58984375 C7.9700048 43.28156781 7.29257589 45.10711078 5 48 C0.96169099 50.73349751 -3.29559726 50.53019208 -8 50 C-11.44504283 48.65193976 -12.68260306 47.4487336 -14.8125 44.4375 C-16.42541244 39.76854293 -16.19980482 35.92851899 -16 31 C-12.7 31 -9.4 31 -6 31 C-5.67 33.97 -5.34 36.94 -5 40 C-4.01 39.505 -4.01 39.505 -3 39 C-2.91243778 34.88457579 -3.212036 32.90545366 -5.96484375 29.7421875 C-7.58173788 28.19604887 -9.20422248 26.655737 -10.83203125 25.12109375 C-14.78922896 21.24945707 -16.13366945 17.86296835 -16.375 12.4375 C-16.22390449 8.52872476 -15.60099696 6.04944471 -13 3 C-8.94453443 -0.3602429 -5.06651783 -0.75021461 0 0 Z " fill="#1D1D1D" transform="translate(445,197)"/>
<path d="M0 0 C3.91188594 1.84925517 5.53784872 3.0126768 7.375 6.9375 C8 10 8 10 8 15 C4.37 15 0.74 15 -3 15 C-3 13.35 -3 11.7 -3 10 C-3.99 10 -4.98 10 -6 10 C-4.58900721 14.48150551 -2.39646811 16.8684377 1 20.0625 C7.74697328 26.42701404 7.74697328 26.42701404 8.30078125 32.05859375 C8.30658203 33.73115234 8.30658203 33.73115234 8.3125 35.4375 C8.33763672 37.10619141 8.33763672 37.10619141 8.36328125 38.80859375 C7.85019841 43.31599894 6.28194204 45.93781946 2.8125 48.8125 C-0.91119021 50.38472476 -4.01416304 50.59827979 -8 50 C-11.72613853 48.34393843 -13.90283218 46.47939207 -16 43 C-16.29296875 39.984375 -16.29296875 39.984375 -16.1875 36.75 C-16.14689453 35.13351563 -16.14689453 35.13351563 -16.10546875 33.484375 C-16.07066406 32.66453125 -16.03585937 31.8446875 -16 31 C-12.7 31 -9.4 31 -6 31 C-5.67 33.64 -5.34 36.28 -5 39 C-4.34 39 -3.68 39 -3 39 C-3.35353873 33.13414309 -4.59882241 30.72789197 -8.9375 26.8125 C-15.69749671 20.63610013 -15.69749671 20.63610013 -16.30078125 15.37890625 C-16.34105813 5.69902865 -16.34105813 5.69902865 -13 2 C-8.75151618 -0.54005096 -4.83348348 -0.67015369 0 0 Z " fill="#1D1D1D" transform="translate(471,197)"/>
<path d="M0 0 C9.30686925 0.102049 9.30686925 0.102049 13.875 2.1875 C18.1502968 7.60287595 18.32312961 13.54397856 17.875 20.1875 C16.87868003 24.93917984 16.34671961 26.71578039 12.875 30.1875 C9.905 30.1875 6.935 30.1875 3.875 30.1875 C3.875 36.4575 3.875 42.7275 3.875 49.1875 C0.245 49.1875 -3.385 49.1875 -7.125 49.1875 C-7.14964247 42.36987576 -7.16783244 35.5522772 -7.17993164 28.73461914 C-7.18497333 26.41332549 -7.19180651 24.09203503 -7.20043945 21.77075195 C-7.21251225 18.44221205 -7.21822979 15.11371398 -7.22265625 11.78515625 C-7.22781754 10.74037613 -7.23297882 9.69559601 -7.23829651 8.61915588 C-7.23837204 7.65823532 -7.23844757 6.69731476 -7.23852539 5.70727539 C-7.240746 4.85678116 -7.24296661 4.00628693 -7.24525452 3.13002014 C-6.98133354 -1.13320277 -3.52447411 0.02007104 0 0 Z M3.875 10.1875 C3.875 13.8175 3.875 17.4475 3.875 21.1875 C4.865 20.8575 5.855 20.5275 6.875 20.1875 C6.875 17.2175 6.875 14.2475 6.875 11.1875 C5.885 10.8575 4.895 10.5275 3.875 10.1875 Z " fill="#202020" transform="translate(383.125,196.8125)"/>
<path d="M0 0 C6.27 0 12.54 0 19 0 C20 1 20 1 20.09765625 3.28515625 C20.06510417 5.85677083 20.03255208 8.42838542 20 11 C16.7 11 13.4 11 10 11 C10 13.64 10 16.28 10 19 C12.97 19 15.94 19 19 19 C19 22.3 19 25.6 19 29 C16.03 29 13.06 29 10 29 C10 32.3 10 35.6 10 39 C13.3 39 16.6 39 20 39 C20 42.3 20 45.6 20 49 C13.4 49 6.8 49 0 49 C0 32.83 0 16.66 0 0 Z " fill="#131313" transform="translate(314,197)"/>
<path d="M0 0 C3.3 0 6.6 0 10 0 C10.99 2.97 11.98 5.94 13 9 C13.66 6.03 14.32 3.06 15 0 C18.3 0 21.6 0 25 0 C24.42144212 6.53507422 23.17948568 12.54592142 21.5 18.875 C18.94511279 28.93458598 18.13012805 38.648905 18 49 C14.7 49 11.4 49 8 49 C8.00902344 48.19304687 8.01804687 47.38609375 8.02734375 46.5546875 C7.68641022 32.59123614 4.01997085 19.31547538 0.62670898 5.84057617 C0 3 0 3 0 0 Z " fill="#1F1F1F" transform="translate(260,197)"/>
<path d="M0 0 C0.66 0.33 1.32 0.66 2 1 C-2.95 5.95 -7.9 10.9 -13 16 C-13.66 15.67 -14.32 15.34 -15 15 C-10.72226048 9.75976909 -6.16137595 5.36068517 -1 1 C-0.67 0.67 -0.34 0.34 0 0 Z " fill="#686868" transform="translate(107,36)"/>
<path d="M0 0 C0.66 0.33 1.32 0.66 2 1 C-1.3 4.3 -4.6 7.6 -8 11 C-8.66 10.67 -9.32 10.34 -10 10 C-6.92118304 6.12948725 -3.99926986 2.97088618 0 0 Z " fill="#616161" transform="translate(148,84)"/>
</svg>
