<svg width="606" height="75" viewBox="0 0 606 75" fill="none" xmlns="http://www.w3.org/2000/svg">
<rect x="1" y="1" width="604" height="73" rx="9" fill="#9DC9F0" fill-opacity="0.1"/>
<rect x="1" y="1" width="604" height="73" rx="9" stroke="white" stroke-width="2"/>
<path d="M21.026 44.5V42.988H23.06V32.746H21.242V31.234H24.698V42.988H26.732V44.5H21.026ZM33.7309 44.5L31.8589 42.61V40.468L33.7309 38.578H38.5189V37.408L37.5469 36.418H33.0829V35.086H38.2309L40.1029 36.976V44.5H38.5189V43.042L37.0609 44.5H33.7309ZM34.4329 43.24H36.6649L38.5189 41.404V39.82L34.4329 39.838L33.4429 40.81V42.25L34.4329 43.24ZM52.0605 44.5V41.8H45.5085V40.144L52.0605 31.234H53.6985V40.306H55.3545V41.8H53.6985V44.5H52.0605ZM52.0605 40.306V33.988L47.3985 40.306H52.0605ZM63.7162 44.5V32.746H59.7742V31.234H69.2962V32.746H65.3542V44.5H63.7162ZM72.3742 44.5L75.7042 39.658L72.3922 35.086H74.2642L76.9462 38.902H77.3602L80.0422 35.086H81.9322L78.6202 39.658L81.9322 44.5H80.0062L77.3422 40.432H76.9462L74.3182 44.5H72.3742ZM88.9273 44.5L87.0373 42.61V36.976L88.9273 35.086H93.1213L95.0113 36.976V40.378H88.6213V42.196L89.6113 43.186H94.8493V44.5H88.9273ZM88.6213 39.118H93.4273V37.336L92.4373 36.346H89.6113L88.6213 37.336V39.118ZM102.607 44.5L100.789 42.664L101.851 41.602L103.309 43.042H107.611L108.601 42.052V39.298L107.593 38.254H103.687V36.814H107.593L108.601 35.77V33.682L107.611 32.674L103.615 32.692L102.157 34.132L101.095 33.07L102.913 31.234H108.349L110.239 33.124V36.202L108.925 37.534L110.239 38.884V42.61L108.349 44.5H102.607ZM116.531 44.5V35.086H118.115V36.778L119.753 35.086H123.227L124.883 36.76L126.503 35.086H129.977L131.867 36.976V44.5H130.283V37.372L129.329 36.346H126.917L125.099 38.182V44.5H123.515L123.533 37.372L122.561 36.346H120.167L118.115 38.434V44.5H116.531ZM139.441 36.778L138.433 36.04L139.729 34.384L137.695 33.826L138.091 32.62L140.053 33.358L139.963 31.234H141.223L141.133 33.34L143.113 32.584L143.509 33.79L141.475 34.366L142.825 36.022L141.799 36.76L140.611 35.014L139.441 36.778ZM150.349 44.86L149.413 43.978L161.167 30.874L162.085 31.756L150.349 44.86ZM150.979 37.318L149.089 35.41V33.142L150.979 31.234H153.571L155.461 33.142V35.41L153.571 37.318H150.979ZM151.717 36.004H152.833L153.877 34.96V33.592L152.833 32.548H151.717L150.673 33.592V34.96L151.717 36.004ZM157.927 44.5L156.055 42.592V40.324L157.927 38.416H160.537L162.409 40.324V42.592L160.537 44.5H157.927ZM158.665 43.186H159.799L160.825 42.142V40.774L159.799 39.73H158.665L157.639 40.774V42.142L158.665 43.186ZM172.69 46.336V44.5H170.278L168.388 42.61V33.124L170.278 31.234H176.542L178.432 33.124V42.61L176.542 44.5H174.13V46.336H172.69ZM171.016 43.042H172.69V41.134H174.13V43.042H175.804L176.794 42.052V33.682L175.804 32.692H171.016L170.026 33.682V42.052L171.016 43.042ZM184.738 44.5V35.086H186.322V36.778L187.96 35.086H191.434L193.09 36.76L194.71 35.086H198.184L200.074 36.976V44.5H198.49V37.372L197.536 36.346H195.124L193.306 38.182V44.5H191.722L191.74 37.372L190.768 36.346H188.374L186.322 38.434V44.5H184.738ZM206.531 35.086L209.447 31.234H211.211L214.145 35.086H212.507L210.401 32.818H210.275L208.169 35.086H206.531ZM223.45 44.5L219.454 35.086H221.182L224.224 42.916H224.638L227.662 35.086H229.408L225.412 44.5H223.45ZM235.972 44.5L234.082 42.61V36.976L235.972 35.086H239.428L240.886 36.58V31.234H242.47V44.5H240.886V43.024L239.428 44.5H235.972ZM239.032 43.24L240.886 41.368V38.236L239.032 36.346H236.656L235.666 37.336V42.25L236.656 43.24H239.032ZM247.765 44.5L251.761 37.714L247.801 31.234H249.655L253.003 36.814H253.435L256.783 31.234H258.655L254.677 37.714L258.673 44.5H256.801L253.435 38.668H253.021L249.655 44.5H247.765ZM263.98 44.5V43.186H268.966L269.812 42.322V41.188L268.912 40.288H265.186L263.53 38.668V36.76L265.186 35.086H270.496V36.418H265.942L265.114 37.228V38.146L265.978 39.01H269.74L271.396 40.63V42.844L269.758 44.5H263.98ZM277.62 40.918L277.494 31.234H279.078L278.934 40.918H277.62ZM277.494 44.5V42.376H279.078V44.5H277.494Z" fill="#82C5FF"/>
<rect x="528" y="43.5" width="20" height="3" fill="#FFCC00"/>
<rect x="528" y="38.5" width="20" height="3" fill="#FFCC00"/>
<rect x="528" y="33.5" width="20" height="3" fill="#FFCC00"/>
<rect x="528" y="28.5" width="20" height="3" fill="white"/>
<path d="M582.375 38.887V37.4902C582.375 32.8622 578.614 29.1094 573.975 29.1094C572.713 29.1078 571.467 29.3909 570.33 29.9376C569.193 30.4843 568.193 31.2805 567.406 32.2669M565.6 36.1106V37.5075C565.6 42.1406 569.359 45.8906 574 45.8906C575.258 45.8888 576.5 45.6063 577.636 45.0636C578.771 44.5209 579.771 43.7318 580.562 42.7538" stroke="#F2F2F7" stroke-width="2" stroke-miterlimit="10" stroke-linecap="square"/>
<path d="M563.5 37.5L565.562 35.4375L567.719 37.5M584.5 37.5L582.438 39.5625L580.281 37.5" stroke="#F2F2F7" stroke-width="2" stroke-miterlimit="10" stroke-linecap="square"/>
</svg>
